HIERARCHY
ROOT Hips
{
	OFFSET -0.001795 -0.223333 0.028219
	CHANNELS 6 Xposition Yposition Zposition Zrotation Yrotation Xrotation 
	JOINT LeftUpLeg
	{
		OFFSET 0.069520 -0.091406 -0.006815
		CHANNELS 3 Zrotation Yrotation Xrotation
		JOINT LeftLeg
		{
			OFFSET 0.034277 -0.375199 -0.004496
			CHANNELS 3 Zrotation Yrotation Xrotation
			JOINT LeftFoot
			{
				OFFSET -0.013596 -0.397961 -0.043693
				CHANNELS 3 Zrotation Yrotation Xrotation
				JOINT LeftToe
				{
					OFFSET 0.026358 -0.055791 0.119288
					CHANNELS 3 Zrotation Yrotation Xrotation
					End Site
					{
						OFFSET 0.000000 0.000000 0.000000
					}
				}
			}
		}
	}
	JOINT RightUpLeg
	{
		OFFSET -0.067670 -0.090522 -0.004320
		CHANNELS 3 Zrotation Yrotation Xrotation
		JOINT RightLeg
		{
			OFFSET -0.038290 -0.382569 -0.008850
			CHANNELS 3 Zrotation Yrotation Xrotation
			JOINT RightFoot
			{
				OFFSET 0.015774 -0.398415 -0.042312
				CHANNELS 3 Zrotation Yrotation Xrotation
				JOINT RightToe
				{
					OFFSET -0.025372 -0.048144 0.123348
					CHANNELS 3 Zrotation Yrotation Xrotation
					End Site
					{
						OFFSET 0.000000 0.000000 0.000000
					}
				}
			}
		}
	}
	JOINT Spine
	{
		OFFSET -0.002533 0.108963 -0.026696
		CHANNELS 3 Zrotation Yrotation Xrotation
		JOINT Spine1
		{
			OFFSET 0.005487 0.135180 0.001092
			CHANNELS 3 Zrotation Yrotation Xrotation
			JOINT Spine2
			{
				OFFSET 0.001457 0.052922 0.025425
				CHANNELS 3 Zrotation Yrotation Xrotation
				JOINT Neck
				{
					OFFSET -0.002778 0.213870 -0.042857
					CHANNELS 3 Zrotation Yrotation Xrotation
					JOINT Head
					{
						OFFSET 0.005152 0.064970 0.051349
						CHANNELS 3 Zrotation Yrotation Xrotation
						End Site
						{
							OFFSET 0.000000 0.000000 0.000000
						}
					}
				}
				JOINT LeftShoulder
				{
					OFFSET 0.078845 0.121749 -0.034090
					CHANNELS 3 Zrotation Yrotation Xrotation
					JOINT LeftArm
					{
						OFFSET 0.090977 0.030469 -0.008868
						CHANNELS 3 Zrotation Yrotation Xrotation
						JOINT LeftForeArm
						{
							OFFSET 0.259612 -0.012772 -0.027456
							CHANNELS 3 Zrotation Yrotation Xrotation
							JOINT LeftHand
							{
								OFFSET 0.249234 0.008986 -0.001171
								CHANNELS 3 Zrotation Yrotation Xrotation
								End Site
								{
									OFFSET 0.000000 0.000000 0.000000
								}
							}
						}
					}
				}
				JOINT RightShoulder
				{
					OFFSET -0.081759 0.118833 -0.038615
					CHANNELS 3 Zrotation Yrotation Xrotation
					JOINT RightArm
					{
						OFFSET -0.096012 0.032551 -0.009143
						CHANNELS 3 Zrotation Yrotation Xrotation
						JOINT RightForeArm
						{
							OFFSET -0.253742 -0.013329 -0.021401
							CHANNELS 3 Zrotation Yrotation Xrotation
							JOINT RightHand
							{
								OFFSET -0.255298 0.007772 -0.005559
								CHANNELS 3 Zrotation Yrotation Xrotation
								End Site
								{
									OFFSET 0.000000 0.000000 0.000000
								}
							}
						}
					}
				}
			}
		}
	}
}
MOTION
Frames: 7
Frame Time: 0.050000
0.751123 0.945138 3.688042 178.412859 -0.569471 -167.253076 -20.372774 31.712707 -48.284564 53.658288 23.617220 47.946950 -67.189465 -0.269254 29.945926 0.000000 0.000000 0.000000 -2.329551 6.174293 -9.864549 6.396442 9.845362 9.977942 173.132087 54.983835 -43.488322 0.000000 0.000000 0.000000 7.100232 11.638717 29.064675 -8.943316 -1.455913 -34.302892 -2.577360 6.447239 27.032411 35.095999 45.946381 -3.188300 0.000000 0.000000 0.000000 8.476941 17.577242 72.470732 -12.402788 -55.843875 10.572802 35.879343 -1.038432 2.559460 0.000000 0.000000 0.000000 -16.999787 4.224444 -122.299207 -78.448491 -59.182404 59.637743 42.034700 -1.750813 -8.366751 0.000000 0.000000 0.000000 
0.755360 0.937933 3.656322 177.558674 -1.295633 -167.137063 -31.444351 32.292617 -57.417319 50.762136 20.856677 42.673658 -64.860422 -3.621345 31.898644 0.000000 0.000000 0.000000 -2.839527 6.763244 -6.163919 5.602557 8.786114 7.811597 178.125522 55.669249 -38.900213 0.000000 0.000000 0.000000 8.868542 13.137978 31.036946 -11.976177 -1.445718 -33.499020 -1.653004 5.675947 27.858227 28.675116 40.451037 -9.269872 0.000000 0.000000 0.000000 5.863449 14.122460 64.469275 -24.797692 -53.065170 14.315536 35.114341 -7.478283 0.149102 0.000000 0.000000 0.000000 -13.005235 7.104832 -104.225276 -42.320763 -75.024674 38.243180 40.563236 8.800580 -4.613627 0.000000 0.000000 0.000000 
0.756568 0.928856 3.619507 177.630386 -0.803098 -166.454530 -40.514654 32.720598 -64.941197 44.271707 17.541185 35.963108 -64.751394 -3.530821 32.294688 0.000000 0.000000 0.000000 -3.652732 7.988398 -3.717964 5.898555 8.556348 7.096261 -177.439348 56.499947 -35.125350 0.000000 0.000000 0.000000 9.722683 14.229915 32.228917 -13.361040 -1.246184 -33.871248 -1.905289 6.087857 28.321487 27.478024 39.345724 -12.762249 0.000000 0.000000 0.000000 3.975068 13.518709 62.460513 -33.086783 -52.247781 16.809868 33.656652 -9.746697 -1.010725 0.000000 0.000000 0.000000 -10.905014 9.012487 -98.023872 -17.417718 -77.130796 18.766147 41.653647 13.048374 -2.942745 0.000000 0.000000 0.000000 
0.755099 0.921162 3.576626 178.018266 -0.033839 -165.153327 48.115299 -34.363248 -58.448663 -40.140275 -39.168260 0.868150 -45.581247 -37.029450 164.839214 0.000000 0.000000 0.000000 -3.020255 -11.164914 -4.406878 -5.329091 -13.132100 12.155873 99.724822 -4.388232 -24.023212 0.000000 0.000000 0.000000 -8.823014 -14.487392 31.302492 -4.823901 -10.899046 -41.473397 24.544302 45.642055 39.452262 20.098965 28.607622 -19.336362 0.000000 0.000000 0.000000 0.075044 9.898066 49.898819 -45.297007 -41.505306 21.356127 29.993094 -15.192748 -1.893248 0.000000 0.000000 0.000000 -5.778622 9.711636 -81.792595 39.213548 -68.683919 -31.590516 40.207280 18.734543 -2.239605 0.000000 0.000000 0.000000 
0.751186 0.919192 3.526066 178.049565 -0.267836 -164.196312 -48.686379 31.339055 -69.531302 42.566207 14.878593 29.169835 -62.892039 -5.598153 31.411100 0.000000 0.000000 0.000000 -3.142020 9.604356 0.912951 5.122409 7.602714 6.559045 -156.977966 58.291828 -22.196791 0.000000 0.000000 0.000000 8.196277 14.232372 31.347760 -14.991976 -0.375822 -33.893867 -0.814550 7.692276 30.084216 19.180434 29.948185 -22.884202 0.000000 0.000000 0.000000 2.387209 12.865913 59.806128 -46.244573 -51.837833 22.993551 30.544804 -14.950879 -2.830079 0.000000 0.000000 0.000000 -9.509277 8.639387 -90.597432 24.933432 -75.715141 -17.347470 42.539673 15.821171 -2.421175 0.000000 0.000000 0.000000 
0.744817 0.923719 3.465975 178.229774 -0.175510 -163.594226 -45.433089 30.780134 -65.874323 43.265629 16.051553 30.480171 -64.795058 -4.315118 29.965210 0.000000 0.000000 0.000000 -3.704121 10.706693 2.023804 5.804150 7.860321 9.426362 -118.696825 54.030289 1.415748 0.000000 0.000000 0.000000 6.259014 13.708987 30.100143 -15.170519 -0.212140 -33.660190 0.317493 7.673032 30.446132 16.215050 26.296671 -24.454576 0.000000 0.000000 0.000000 1.838099 13.532228 58.761723 -50.404056 -51.551341 26.019443 29.380305 -18.100426 -3.673571 0.000000 0.000000 0.000000 -9.971815 10.144967 -88.445380 34.354469 -75.081499 -25.812855 44.519284 15.012055 -2.893619 0.000000 0.000000 0.000000 
0.735874 0.930043 3.397843 178.406447 -0.796880 -163.392354 -38.985717 28.927348 -58.717121 42.857165 17.706410 32.421627 -67.053341 -0.571943 27.714473 0.000000 0.000000 0.000000 -4.869165 10.940755 0.589204 10.959879 11.556478 17.645718 -80.025130 44.206320 24.181019 0.000000 0.000000 0.000000 4.122125 13.245830 28.786858 -14.427882 -0.425358 -33.259943 0.968343 8.031320 30.220069 15.748085 25.212185 -24.833771 0.000000 0.000000 0.000000 1.614149 14.321223 55.459131 -53.169661 -48.257481 26.906339 27.921726 -24.510651 -4.679384 0.000000 0.000000 0.000000 -10.587458 8.248933 -87.876254 36.992339 -77.001221 -30.869071 46.827416 10.661143 -4.719668 0.000000 0.000000 0.000000 
